<?xml version="1.0" standalone="no"?>
<!DOCTYPE svg PUBLIC "-//W3C//DTD SVG 20010904//EN"
 "http://www.w3.org/TR/2001/REC-SVG-20010904/DTD/svg10.dtd">
<svg version="1.0" xmlns="http://www.w3.org/2000/svg"
 width="500.000000pt" height="500.000000pt" viewBox="0 0 500.000000 500.000000"
 preserveAspectRatio="xMidYMid meet">

<g transform="translate(0.000000,500.000000) scale(0.100000,-0.100000)"
fill="#000000" stroke="none">
<path d="M0 2500 l0 -2500 2500 0 2500 0 0 2500 0 2500 -2500 0 -2500 0 0
-2500z m1357 734 c-3 -3 -12 -4 -19 -1 -8 3 -5 6 6 6 11 1 17 -2 13 -5z m-437
-197 c0 -2 -10 -12 -22 -23 l-23 -19 19 23 c18 21 26 27 26 19z m1061 -44 c13
-16 12 -17 -3 -4 -10 7 -18 15 -18 17 0 8 8 3 21 -13z m996 -540 c-1 -82 -3
-15 -3 147 0 162 2 229 3 148 2 -82 2 -214 0 -295z m-1762 47 c0 -368 0 -375
-20 -375 -20 0 -20 8 -23 365 -1 201 0 371 3 378 3 8 13 12 22 10 17 -3 18
-29 18 -378z m1566 363 c13 -16 12 -17 -3 -4 -17 13 -22 21 -14 21 2 0 10 -8
17 -17z m322 -60 c-7 -2 -19 -2 -25 0 -7 3 -2 5 12 5 14 0 19 -2 13 -5z m844
-35 c-3 -8 -6 -5 -6 6 -1 11 2 17 5 13 3 -3 4 -12 1 -19z m-790 -70 c-2 -13
-4 -3 -4 22 0 25 2 35 4 23 2 -13 2 -33 0 -45z m700 10 c-2 -13 -4 -5 -4 17
-1 22 1 32 4 23 2 -10 2 -28 0 -40z m-2758 -12 c8 -9 11 -73 9 -207 -3 -186
-4 -194 -23 -194 -19 0 -20 8 -23 195 -1 107 0 200 2 207 7 17 21 16 35 -1z
m220 0 c8 -9 11 -73 9 -207 -3 -193 -3 -194 -25 -197 l-23 -3 0 204 c0 112 3
207 7 210 10 10 19 8 32 -7z m206 -197 c0 -197 -1 -204 -20 -204 -19 0 -20 8
-23 199 -2 200 1 223 33 213 6 -2 10 -81 10 -208z m213 199 c14 -14 17 -375 3
-397 -5 -8 -16 -11 -25 -8 -14 6 -16 32 -16 205 0 214 4 234 38 200z m-310
-201 c3 -102 2 -107 -18 -107 -19 0 -20 6 -20 111 0 100 2 110 18 107 15 -3
17 -18 20 -111z m212 2 c0 -109 0 -110 -22 -107 -22 3 -23 8 -26 97 -3 108 0
121 28 121 19 0 20 -6 20 -111z m215 1 c0 -98 -1 -105 -20 -105 -18 0 -20 8
-23 94 -3 107 1 124 25 119 16 -3 18 -16 18 -108z m-847 -3 c3 -62 1 -67 -18
-67 -18 0 -20 6 -20 71 0 62 2 70 18 67 14 -3 18 -16 20 -71z m942 3 c0 -63
-2 -70 -20 -70 -18 0 -20 7 -20 70 0 63 2 70 20 70 18 0 20 -7 20 -70z m1147
44 c-3 -3 -12 -4 -19 -1 -8 3 -5 6 6 6 11 1 17 -2 13 -5z m760 -81 c-2 -16 -4
-5 -4 22 0 28 2 40 4 28 2 -13 2 -35 0 -50z m-1067 -117 c0 -2 -8 -10 -17 -17
-16 -13 -17 -12 -4 4 13 16 21 21 21 13z m-1919 -323 c13 -16 12 -17 -3 -4
-10 7 -18 15 -18 17 0 8 8 3 21 -13z"/>
</g>
</svg>
