<?xml version="1.0" standalone="no"?>
<!DOCTYPE svg PUBLIC "-//W3C//DTD SVG 20010904//EN"
 "http://www.w3.org/TR/2001/REC-SVG-20010904/DTD/svg10.dtd">
<svg version="1.0" xmlns="http://www.w3.org/2000/svg"
 width="500.000000pt" height="500.000000pt" viewBox="0 0 500.000000 500.000000"
 preserveAspectRatio="xMidYMid meet">

<g transform="translate(0.000000,500.000000) scale(0.100000,-0.100000)"
fill="#000000" stroke="none">
<path d="M0 2500 l0 -2500 2500 0 2500 0 0 2500 0 2500 -2500 0 -2500 0 0
-2500z m2403 1203 c-7 -2 -19 -2 -25 0 -7 3 -2 5 12 5 14 0 19 -2 13 -5z m214
1 c-3 -3 -12 -4 -19 -1 -8 3 -5 6 6 6 11 1 17 -2 13 -5z m-907 -288 c0 -2 -8
-10 -17 -17 -16 -13 -17 -12 -4 4 13 16 21 21 21 13z m1601 -13 c13 -16 12
-17 -3 -4 -10 7 -18 15 -18 17 0 8 8 3 21 -13z m-1701 -87 c0 -2 -8 -10 -17
-17 -16 -13 -17 -12 -4 4 13 16 21 21 21 13z m1801 -13 c13 -16 12 -17 -3 -4
-10 7 -18 15 -18 17 0 8 8 3 21 -13z m-1263 -195 c9 -9 12 -159 12 -614 0
-534 -2 -604 -16 -618 -21 -21 -41 -20 -54 3 -11 21 -15 1196 -4 1225 7 19 45
21 62 4z m-184 -284 c14 -13 16 -57 16 -328 0 -337 -2 -351 -51 -344 l-24 3
-3 329 c-2 332 0 356 34 356 7 0 20 -7 28 -16z m360 0 c14 -13 16 -58 16 -333
0 -233 -3 -320 -12 -329 -17 -17 -65 -15 -72 4 -3 9 -6 159 -6 334 0 293 1
320 18 329 24 15 38 13 56 -5z m340 0 c14 -13 16 -58 16 -333 0 -347 0 -346
-57 -339 l-28 3 -3 330 c-2 301 -1 331 15 343 22 16 38 15 57 -4z m347 6 c18
-10 19 -25 19 -330 0 -175 -3 -325 -6 -334 -4 -9 -18 -16 -34 -16 -16 0 -30 7
-34 16 -3 9 -6 159 -6 334 0 293 1 320 18 329 21 13 20 13 43 1z m-513 -162
c13 -13 18 -311 6 -342 -8 -21 -60 -21 -68 0 -3 9 -6 86 -6 173 0 160 5 181
40 181 9 0 21 -5 28 -12z m350 0 c13 -13 18 -311 6 -342 -8 -22 -70 -22 -78 0
-3 9 -6 86 -6 173 0 165 4 181 45 181 12 0 26 -5 33 -12z m356 -4 c3 -9 6 -85
6 -169 0 -84 -3 -160 -6 -169 -7 -19 -45 -21 -62 -4 -17 17 -17 329 0 346 17
17 55 15 62 -4z m-1395 -68 c8 -9 11 -48 9 -111 -2 -80 -6 -100 -20 -109 -13
-8 -23 -8 -35 0 -15 9 -19 29 -21 109 -3 101 4 125 38 125 10 0 23 -6 29 -14z
m1549 2 c15 -15 16 -181 2 -209 -12 -21 -40 -25 -58 -7 -13 13 -17 183 -6 212
7 19 45 21 62 4z m-1633 -1028 c10 -11 16 -20 13 -20 -3 0 -13 9 -23 20 -10
11 -16 20 -13 20 3 0 13 -9 23 -20z m1575 16 c0 -2 -8 -10 -17 -17 -16 -13
-17 -12 -4 4 13 16 21 21 21 13z"/>
</g>
</svg>
